# xmcd CD database file
#
# Track frame offsets:
#	150
#	13087
#	26644
#	38625
#	50433
#	63184
#	77127
#	90942
#	101204
#	111650
#	124324
#	138340
#	150394
#	161870
#	175498
#
# Disc length: 2523 seconds
#
# Revision: 1
# Processed by: cddbd v1.5.1PL0 Copyright (c) Steve Scherf et al.
# Submitted via: CDex 1.51
#
DISCID=c609d90f
DTITLE=Ray Charles - The One and Only
DYEAR=2005
DGENRE=Blues
TTITLE0=I've Got A Waman
TTITLE1=The Midnight Hour
TTITLE2=I Love You, I Love you
TTITLE3=Can't You See My Darling
TTITLE4=I'm Just A Lonely Boy
TTITLE5=Come Back Baby
TTITLE6=Someday (You'll Want Me To Want You)
TTITLE7=Ain't That Fine
TTITLE8=Hey Now
TTITLE9=Why Did You Go?
TTITLE10=Kissa Me Baby
TTITLE11=Going Down Slow
TTITLE12=Guitar Blues
TTITLE13=Baby Let Me Hold Your Hand
TTITLE14=This Love Of Mine
EXTD=YEAR: 2005
EXTT0=
EXTT1=
EXTT2=
EXTT3=
EXTT4=
EXTT5=
EXTT6=
EXTT7=
EXTT8=
EXTT9=
EXTT10=
EXTT11=
EXTT12=
EXTT13=
EXTT14=
PLAYORDER=
